<svg width="44" height="44" fill="none" xmlns="http://www.w3.org/2000/svg"><path d="M26 22.5a4.5 4.5 0 11-9 0 4.5 4.5 0 019 0z" fill="#fff"/><path d="M31.484 14.946a3.966 3.966 0 00-.958-1.472 3.964 3.964 0 00-1.472-.958c-.452-.176-1.13-.384-2.378-.441C25.325 12.013 24.92 12 21.5 12s-3.825.013-5.175.075c-1.25.057-1.927.265-2.378.44a3.961 3.961 0 00-1.473.959 3.971 3.971 0 00-.958 1.472c-.176.452-.384 1.13-.441 2.379C11.013 18.675 11 19.08 11 22.5s.013 3.825.075 5.176c.057 1.248.265 1.926.44 2.378.206.556.533 1.06.959 1.472.413.426.916.753 1.472.958.452.176 1.13.385 2.379.441 1.35.062 1.755.075 5.175.075s3.825-.013 5.175-.075c1.25-.056 1.927-.265 2.379-.44a4.238 4.238 0 002.43-2.431c.176-.452.384-1.13.441-2.378.062-1.351.075-1.756.075-5.176s-.013-3.825-.075-5.175c-.056-1.25-.265-1.927-.44-2.379zM21.5 29.076a6.577 6.577 0 110-13.153 6.577 6.577 0 010 13.154zM28.337 17.2a1.537 1.537 0 110-3.074 1.537 1.537 0 010 3.074z" fill="#fff"/><path d="M22 0C9.852 0 0 9.852 0 22s9.852 22 22 22 22-9.852 22-22S34.148 0 22 0zm12.557 27.208c-.062 1.345-.275 2.263-.588 3.067a6.46 6.46 0 01-3.694 3.694c-.803.313-1.722.526-3.066.588-1.348.061-1.778.076-5.209.076-3.43 0-3.86-.015-5.208-.076-1.345-.062-2.263-.275-3.067-.588a6.188 6.188 0 01-2.237-1.457 6.189 6.189 0 01-1.457-2.237c-.312-.803-.526-1.722-.587-3.066-.062-1.348-.077-1.778-.077-5.209 0-3.43.015-3.861.076-5.208.061-1.345.275-2.263.587-3.067a6.186 6.186 0 011.458-2.237 6.186 6.186 0 012.237-1.457c.804-.313 1.722-.526 3.067-.588 1.347-.061 1.777-.076 5.208-.076 3.43 0 3.861.015 5.208.077 1.345.06 2.263.274 3.067.586a6.191 6.191 0 012.238 1.458 6.19 6.19 0 011.456 2.237c.313.804.526 1.722.588 3.067.061 1.347.076 1.777.076 5.208 0 3.43-.015 3.861-.076 5.208z" fill="#fff"/></svg>