<svg width="45" height="45" fill="none" xmlns="http://www.w3.org/2000/svg"><path d="M17.82 17.546c0-2.089-1.42-2.089-1.42-2.089h-5.848v4.483h5.485c.948 0 1.784-.304 1.784-2.394zm-1.42 5.49h-5.848v5.369h5.578c.839-.024 2.387-.287 2.387-2.61 0-2.787-2.117-2.76-2.117-2.76zm14.97-3.096c-3.103 0-3.536 3.096-3.536 3.096h6.599s.04-3.097-3.063-3.097z" fill="#fff"/><path d="M22.143 0C9.913 0 0 9.914 0 22.143c0 12.229 9.914 22.143 22.143 22.143 12.23 0 22.143-9.914 22.143-22.143C44.286 9.914 34.372 0 22.143 0zm4.828 13.07h8.288v2.473H26.97V13.07zm-4.19 12.974c0 6.131-6.38 5.93-6.38 5.93H5.948V11.886H16.4c3.177 0 5.685 1.754 5.685 5.349s-3.066 3.822-3.066 3.822c4.041 0 3.763 4.987 3.763 4.987zm8.629 3.168c3.339 0 3.22-2.16 3.22-2.16h3.536c0 5.734-6.874 5.342-6.874 5.342-8.248 0-7.718-7.68-7.718-7.68s-.006-7.717 7.717-7.717c8.131 0 6.993 8.72 6.993 8.72h-10.41c0 3.732 3.536 3.495 3.536 3.495z" fill="#fff"/></svg>