<svg width="37" height="37" fill="none" xmlns="http://www.w3.org/2000/svg"><g filter="url(#filter0_d_3028_5)"><circle cx="18.5" cy="16.5" r="13.5" fill="#2B2B2D"/></g><path d="M24.67 16.94a.492.492 0 00-.412.09 5.25 5.25 0 01-1.593.93 4.986 4.986 0 01-1.807.322 5.26 5.26 0 01-3.721-1.54 5.26 5.26 0 01-1.539-3.72c0-.609.107-1.2.286-1.736a4.804 4.804 0 01.86-1.539.457.457 0 00-.072-.644.495.495 0 00-.412-.09 7.22 7.22 0 00-3.793 2.541A7.085 7.085 0 0011 15.866c0 1.95.787 3.721 2.075 5.01a7.059 7.059 0 005.01 2.075 7.115 7.115 0 004.383-1.52 7.054 7.054 0 002.505-3.919c.09-.268-.053-.519-.304-.572zm-2.738 3.739a6.14 6.14 0 01-8.159-.483 6.14 6.14 0 01-1.807-4.348 6.05 6.05 0 011.27-3.74 6.152 6.152 0 012.058-1.717c-.09.197-.179.394-.25.609a5.953 5.953 0 00-.34 2.04c0 1.699.697 3.256 1.807 4.365a6.181 6.181 0 004.365 1.807c.752 0 1.467-.125 2.13-.376.232-.09.464-.179.679-.286a6.51 6.51 0 01-1.753 2.129z" fill="#fff"/><defs><filter id="filter0_d_3028_5" x="0" y="0" width="37" height="37" filterUnits="userSpaceOnUse" color-interpolation-filters="sRGB"><feFlood flood-opacity="0" result="BackgroundImageFix"/><feColorMatrix in="SourceAlpha" values="0 0 0 0 0 0 0 0 0 0 0 0 0 0 0 0 0 0 127 0" result="hardAlpha"/><feOffset dy="2"/><feGaussianBlur stdDeviation="2.5"/><feColorMatrix values="0 0 0 0 0 0 0 0 0 0 0 0 0 0 0 0 0 0 0.6 0"/><feBlend in2="BackgroundImageFix" result="effect1_dropShadow_3028_5"/><feBlend in="SourceGraphic" in2="effect1_dropShadow_3028_5" result="shape"/></filter></defs></svg>