<svg width="96" height="15" fill="none" xmlns="http://www.w3.org/2000/svg"><g clip-path="url(#clip0_6_38)"><path d="M14.556 5.912a.409.409 0 00-.33-.279l-4.329-.629-1.936-3.922a.409.409 0 00-.733 0L5.292 5.004l-4.329.63a.409.409 0 00-.227.697l3.132 3.053-.739 4.312a.409.409 0 00.594.43l3.872-2.035 3.871 2.036a.409.409 0 00.594-.432l-.74-4.31 3.133-3.054a.409.409 0 00.103-.42z" fill="#fff"/></g><g clip-path="url(#clip1_6_38)"><path d="M35.091 5.912a.409.409 0 00-.33-.279l-4.329-.629-1.936-3.922a.409.409 0 00-.734 0l-1.936 3.922-4.328.63a.409.409 0 00-.227.697l3.132 3.053-.74 4.312a.409.409 0 00.594.43l3.872-2.035 3.872 2.036a.409.409 0 00.593-.432l-.739-4.31 3.132-3.054a.409.409 0 00.104-.42z" fill="#fff"/></g><g clip-path="url(#clip2_6_38)"><path d="M55.625 5.912a.427.427 0 00-.35-.279l-4.583-.629-2.05-3.922a.436.436 0 00-.389-.228.436.436 0 00-.388.228l-2.05 3.922-4.583.63a.427.427 0 00-.35.278.394.394 0 00.11.419l3.316 3.053-.783 4.312a.399.399 0 00.173.4.45.45 0 00.456.03l4.1-2.035 4.099 2.036c.146.072.322.06.456-.031a.4.4 0 00.172-.4l-.783-4.312 3.317-3.053a.393.393 0 00.11-.42z" fill="#fff"/></g><g clip-path="url(#clip3_6_38)"><path d="M75.34 5.912a.409.409 0 00-.331-.279l-4.329-.629-1.936-3.922a.409.409 0 00-.733 0l-1.936 3.922-4.33.63a.41.41 0 00-.226.697l3.132 3.053-.739 4.312a.409.409 0 00.594.43l3.871-2.035 3.872 2.036a.409.409 0 00.594-.432l-.74-4.31 3.133-3.054a.409.409 0 00.103-.42z" fill="#fff"/></g><g clip-path="url(#clip4_6_38)"><path d="M95.874 5.912a.409.409 0 00-.33-.279l-4.329-.629-1.936-3.922a.409.409 0 00-.734 0L86.61 5.004l-4.328.63a.41.41 0 00-.227.697l3.132 3.053-.74 4.312a.409.409 0 00.594.43l3.872-2.035 3.872 2.036a.409.409 0 00.593-.432l-.74-4.31L95.77 6.33a.409.409 0 00.104-.42z" fill="#fff"/></g><defs><clipPath id="clip0_6_38"><path fill="#fff" transform="translate(.613 .533)" d="M0 0h13.964v13.964H0z"/></clipPath><clipPath id="clip1_6_38"><path fill="#fff" transform="translate(21.147 .533)" d="M0 0h13.964v13.964H0z"/></clipPath><clipPath id="clip2_6_38"><path fill="#fff" transform="translate(40.86 .533)" d="M0 0h14.785v13.964H0z"/></clipPath><clipPath id="clip3_6_38"><path fill="#fff" transform="translate(61.395 .533)" d="M0 0h13.964v13.964H0z"/></clipPath><clipPath id="clip4_6_38"><path fill="#fff" transform="translate(81.93 .533)" d="M0 0h13.964v13.964H0z"/></clipPath></defs></svg>