<svg width="60" height="60" fill="none" xmlns="http://www.w3.org/2000/svg"><path d="M35.742 30a5.742 5.742 0 11-11.484 0 5.742 5.742 0 0111.484 0z" fill="#fff"/><path d="M43.43 19.84a5.338 5.338 0 00-1.29-1.98 5.334 5.334 0 00-1.98-1.289c-.607-.236-1.52-.516-3.199-.593-1.816-.083-2.361-.1-6.96-.1-4.6 0-5.146.017-6.962.1-1.68.077-2.592.357-3.199.593a5.33 5.33 0 00-1.98 1.289 5.34 5.34 0 00-1.29 1.98c-.235.607-.516 1.52-.592 3.2-.083 1.816-.1 2.36-.1 6.96s.017 5.145.1 6.962c.076 1.68.357 2.591.593 3.198a5.34 5.34 0 001.288 1.98 5.333 5.333 0 001.981 1.29c.607.236 1.52.516 3.199.593 1.816.083 2.36.1 6.96.1 4.601 0 5.146-.017 6.962-.1 1.68-.077 2.592-.357 3.199-.594a5.704 5.704 0 003.27-3.269c.235-.607.515-1.519.592-3.198.083-1.817.1-2.362.1-6.962s-.017-5.144-.1-6.96c-.076-1.68-.357-2.593-.593-3.2zM30 38.846a8.846 8.846 0 110-17.692 8.846 8.846 0 110 17.692zm9.196-15.974a2.067 2.067 0 110-4.135 2.067 2.067 0 010 4.135z" fill="#fff"/><path d="M30 0C13.434 0 0 13.434 0 30c0 16.566 13.434 30 30 30 16.566 0 30-13.434 30-30C60 13.434 46.566 0 30 0zm17.123 37.102c-.084 1.834-.375 3.086-.801 4.182a8.808 8.808 0 01-5.038 5.038c-1.096.426-2.348.717-4.181.8-1.837.084-2.424.105-7.103.105-4.678 0-5.265-.02-7.102-.104-1.834-.084-3.086-.375-4.181-.801a8.44 8.44 0 01-3.052-1.987 8.445 8.445 0 01-1.987-3.051c-.425-1.096-.717-2.348-.8-4.181-.085-1.838-.105-2.425-.105-7.103s.02-5.265.104-7.102c.084-1.834.375-3.086.8-4.182a8.44 8.44 0 011.988-3.05 8.44 8.44 0 013.051-1.988c1.096-.426 2.348-.717 4.182-.8 1.837-.084 2.424-.105 7.102-.105 4.678 0 5.265.02 7.102.105 1.834.083 3.086.374 4.182.8a8.445 8.445 0 013.051 1.987 8.44 8.44 0 011.987 3.051c.426 1.096.717 2.348.801 4.182.084 1.837.104 2.424.104 7.102 0 4.678-.02 5.265-.104 7.102z" fill="#fff"/></svg>