<svg width="17" height="16" fill="none" xmlns="http://www.w3.org/2000/svg"><g clip-path="url(#clip0_34_1485)" fill="#131313"><path d="M5.527 5.293C4.807 5.98 4.342 6.949 4.342 8c0 1.05.444 2.02 1.185 2.707a4.133 4.133 0 002.836 1.131c1.1 0 2.116-.444 2.836-1.13.72-.688 1.185-1.658 1.185-2.708 0-1.05-.444-2.02-1.185-2.707a4.132 4.132 0 00-2.836-1.131c-1.1 0-2.116.424-2.836 1.13zm4.91.727A2.73 2.73 0 0111.284 8a2.73 2.73 0 01-.847 1.98 3 3 0 01-2.074.808 3 3 0 01-2.074-.808A2.73 2.73 0 015.442 8c0-.768.318-1.475.847-1.98a3 3 0 012.074-.808 3 3 0 012.074.808zM7.813.888v1.556c0 .283.254.525.55.525.297 0 .551-.242.551-.525V.888c0-.282-.254-.525-.55-.525-.297 0-.55.243-.55.525zM13.633 8c0 .282.254.525.55.525h1.63c.296 0 .55-.243.55-.525 0-.283-.254-.526-.55-.526h-1.63c-.296 0-.55.243-.55.526zm-.381-5.394l-1.164 1.11c-.211.183-.211.526 0 .728.212.202.55.202.762 0l1.164-1.11a.496.496 0 000-.728.555.555 0 00-.762 0zM.363 8c0 .282.254.525.55.525h1.63c.296 0 .55-.243.55-.525 0-.283-.254-.526-.55-.526H.913c-.296 0-.55.243-.55.526zm2.349-5.414a.496.496 0 000 .727l1.164 1.111c.212.202.55.202.762 0 .212-.182.212-.525 0-.727L3.474 2.586a.555.555 0 00-.762 0zm5.101 10.969v1.556c0 .283.254.525.55.525.297 0 .551-.222.551-.525v-1.556c0-.282-.254-.525-.55-.525-.297 0-.55.243-.55.525zm4.275-1.98c-.211.182-.211.526 0 .728l1.164 1.11c.212.203.55.203.762 0a.496.496 0 000-.726l-1.164-1.111a.555.555 0 00-.762 0zm-8.212 0l-1.164 1.112a.496.496 0 000 .727c.212.202.55.202.762 0l1.164-1.111a.496.496 0 000-.728.555.555 0 00-.762 0z"/></g><defs><clipPath id="clip0_34_1485"><path fill="#fff" transform="rotate(-90 8 7.636)" d="M0 0h15.273v16H0z"/></clipPath></defs></svg>