<svg width="47" height="62" fill="none" xmlns="http://www.w3.org/2000/svg"><path d="M23.549 1.831L1.916 21.076m0 0l5.351 4.761m-5.351-4.76v19.245m21.633 0l-5.465-4.862m5.465 4.862v21.473m0-21.473l5.465-4.862M45.18 21.076l-.683.608M18.084 35.46l20.721-18.435M18.084 35.46l-5.466-4.862m5.466 4.862v20.663m-5.466-25.525L33.34 12.163M12.618 30.598l-5.35-4.76m5.35 4.76v19.447m-5.35-24.208l20.38-18.13m-20.38 18.13V45.59m21.746-10.13v20.664m0-20.663l5.465-4.862m0 0V51.26m0-20.663l4.326-3.85m0 0v18.84m0-18.84l5.693-5.064m0 0v19.853" stroke="#FB1B3D" stroke-width="3"/></svg>